<?xml version="1.0" encoding="UTF-8"?>
<svg id="Camada_1" data-name="Camada 1" xmlns="http://www.w3.org/2000/svg" xmlns:xlink="http://www.w3.org/1999/xlink" viewBox="0 0 200 30">
  <defs>
    <style>
      .cls-1 {
        fill: #964529;
      }

      .cls-2 {
        fill: #a7a7d1;
      }

      .cls-3 {
        fill: #fff;
      }

      .cls-4 {
        fill: #e9e9ff;
      }

      .cls-5 {
        fill: #4b6584;
      }

      .cls-6 {
        fill: #59598e;
      }

      .cls-7 {
        fill: #ffb600;
      }

      .cls-8 {
        clip-path: url(#clippath-2);
      }

      .cls-9 {
        fill: #778ca3;
      }

      .cls-10 {
        clip-path: url(#clippath-1);
      }

      .cls-11 {
        fill: #e28600;
      }

      .cls-12 {
        opacity: .27;
      }

      .cls-13 {
        fill: #db6d00;
      }

      .cls-14 {
        clip-path: url(#clippath);
      }

      .cls-15 {
        fill: #7373a8;
      }

      .cls-16 {
        fill: none;
      }

      .cls-17 {
        clip-path: url(#clippath-3);
      }

      .cls-18 {
        fill: #8080ba;
      }

      .cls-19 {
        fill: #b7b7e5;
      }

      .cls-20 {
        fill: #ff8500;
      }
    </style>
    <clipPath id="clippath">
      <circle class="cls-16" cx="109.49" cy="15" r="11.87"/>
    </clipPath>
    <clipPath id="clippath-1">
      <circle class="cls-16" cx="109.49" cy="15" r="11.87"/>
    </clipPath>
    <clipPath id="clippath-2">
      <circle class="cls-16" cx="109.49" cy="15" r="8.26"/>
    </clipPath>
    <clipPath id="clippath-3">
      <circle class="cls-16" cx="109.49" cy="15" r="12.71"/>
    </clipPath>
  </defs>
  <g>
    <path class="cls-5" d="M5,27L9.48,4.62h2.59l6.71,16.95-1.37-.03L30.55,4.62h2.75l-4.48,22.38h-3.07l3.55-17.65,.8,.06-11.67,14.87h-1.47l-6.04-14.93,.67,.1-3.52,17.55h-3.07Z"/>
    <path class="cls-5" d="M41.26,27l1.73-8.63,.38,2.11-6.46-15.86h3.17l5.4,13.3-1.79,.03,10.74-13.33h3.39l-12.73,15.89,1.09-2.14-1.73,8.63h-3.2Z"/>
    <path class="cls-5" d="M66.68,27V4.62h6.2l8.95,14.61h-3.26l8.7-14.61h6.2l.06,22.38h-6.87l-.06-12.02h1.09l-5.95,10.01h-3.33l-6.2-10.01h1.34v12.02h-6.87Z"/>
    <path class="cls-5" d="M125.32,27V4.62h6.2l11.38,13.62h-2.88V4.62h7.35V27h-6.2l-11.38-13.62h2.88v13.62h-7.35Z"/>
    <path class="cls-5" d="M151.03,27V4.62h18.19v5.69h-10.77v11h11.19v5.69h-18.61Zm6.91-8.63v-5.44h9.98v5.44h-9.98Z"/>
    <path class="cls-5" d="M177.98,27v-9.82l1.73,4.51-10.17-17.07h7.96l6.87,11.67h-4.64l6.94-11.67h7.29l-10.1,17.07,1.66-4.51v9.82h-7.55Z"/>
  </g>
  <g>
    <path class="cls-9" d="M6.03,27L10.51,4.62h2.59l6.71,16.95-1.37-.03L31.58,4.62h2.75l-4.48,22.38h-3.07l3.55-17.65,.8,.06-11.67,14.87h-1.47l-6.04-14.93,.67,.1-3.52,17.55h-3.07Z"/>
    <path class="cls-9" d="M42.29,27l1.73-8.63,.38,2.11-6.46-15.86h3.17l5.4,13.3-1.79,.03,10.74-13.33h3.39l-12.73,15.89,1.09-2.14-1.73,8.63h-3.2Z"/>
    <path class="cls-9" d="M67.71,27V4.62h6.2l8.95,14.61h-3.26l8.7-14.61h6.2l.06,22.38h-6.87l-.06-12.02h1.09l-5.95,10.01h-3.33l-6.2-10.01h1.34v12.02h-6.87Z"/>
    <path class="cls-9" d="M126.35,27V4.62h6.2l11.38,13.62h-2.88V4.62h7.35V27h-6.2l-11.38-13.62h2.88v13.62h-7.35Z"/>
    <path class="cls-9" d="M152.06,27V4.62h18.19v5.69h-10.77v11h11.19v5.69h-18.61Zm6.91-8.63v-5.44h9.98v5.44h-9.98Z"/>
    <path class="cls-9" d="M179.01,27v-9.82l1.73,4.51-10.17-17.07h7.96l6.87,11.67h-4.64l6.94-11.67h7.29l-10.1,17.07,1.66-4.51v9.82h-7.55Z"/>
  </g>
  <g>
    <g>
      <circle class="cls-1" cx="108.95" cy="15" r="12.71"/>
      <g>
        <circle class="cls-20" cx="109.49" cy="15" r="12.71"/>
        <path class="cls-13" d="M109.49,27.76c-7.04,0-12.76-5.73-12.76-12.76s5.73-12.76,12.76-12.76,12.76,5.73,12.76,12.76-5.73,12.76-12.76,12.76Zm0-25.43c-6.98,0-12.66,5.68-12.66,12.66s5.68,12.66,12.66,12.66,12.66-5.68,12.66-12.66-5.68-12.66-12.66-12.66Z"/>
      </g>
      <circle class="cls-7" cx="109.49" cy="15" r="11.87"/>
      <g>
        <g class="cls-14">
          <g>
            <rect class="cls-11" x="89.38" y="10.04" width="25.69" height=".1" transform="translate(47.38 96.95) rotate(-63.37)"/>
            <rect class="cls-11" x="89.85" y="10.35" width="25.69" height=".1" transform="translate(47.37 97.54) rotate(-63.37)"/>
            <rect class="cls-11" x="90.33" y="10.71" width="25.69" height=".1" transform="translate(47.3 98.16) rotate(-63.37)"/>
            <rect class="cls-11" x="90.8" y="11.02" width="25.69" height=".1" transform="translate(47.29 98.76) rotate(-63.37)"/>
            <rect class="cls-11" x="91.28" y="11.29" width="25.69" height=".1" transform="translate(47.31 99.34) rotate(-63.37)"/>
            <rect class="cls-11" x="91.75" y="11.6" width="25.69" height=".1" transform="translate(47.3 99.93) rotate(-63.37)"/>
            <rect class="cls-11" x="92.23" y="11.88" width="25.69" height=".1" transform="translate(47.31 100.51) rotate(-63.37)"/>
            <rect class="cls-11" x="92.7" y="12.24" width="25.69" height=".1" transform="translate(47.24 101.13) rotate(-63.37)"/>
            <rect class="cls-11" x="93.17" y="12.58" width="25.69" height=".1" transform="translate(47.21 101.74) rotate(-63.37)"/>
            <rect class="cls-11" x="93.65" y="12.8" width="25.69" height=".1" transform="translate(47.27 102.29) rotate(-63.37)"/>
            <rect class="cls-11" x="94.13" y="13.16" width="25.69" height=".1" transform="translate(47.21 102.91) rotate(-63.37)"/>
            <rect class="cls-11" x="94.6" y="13.44" width="25.69" height=".1" transform="translate(47.22 103.49) rotate(-63.37)"/>
            <rect class="cls-11" x="95.08" y="13.69" width="25.69" height=".1" transform="translate(47.27 104.06) rotate(-63.37)"/>
            <rect class="cls-11" x="95.55" y="13.97" width="25.69" height=".1" transform="translate(47.28 104.63) rotate(-63.37)"/>
            <rect class="cls-11" x="96.03" y="14.27" width="25.69" height=".1" transform="translate(47.27 105.23) rotate(-63.37)"/>
          </g>
        </g>
        <g class="cls-10">
          <g>
            <g>
              <rect class="cls-11" x="115.74" y="4.09" width=".1" height="2.52" transform="translate(17.08 66.12) rotate(-34.26)"/>
              <rect class="cls-11" x="115.44" y="4.2" width=".1" height="3.03" transform="translate(18.77 69.09) rotate(-36.07)"/>
              <rect class="cls-11" x="115.14" y="4.72" width=".1" height="3.03" transform="translate(18.41 69.01) rotate(-36.07)"/>
              <rect class="cls-11" x="115.16" y="8.09" width="1.06" height=".1" transform="translate(18.06 70.74) rotate(-36.69)"/>
              <rect class="cls-11" x="114.52" y="7.64" width="1.53" height=".1" transform="translate(19.42 72.19) rotate(-37.75)"/>
              <rect class="cls-11" x="114.26" y="7.28" width="1.53" height=".1" transform="translate(19.59 71.95) rotate(-37.75)"/>
              <rect class="cls-11" x="113.88" y="6.84" width="1.53" height=".1" transform="translate(19.78 71.63) rotate(-37.75)"/>
              <rect class="cls-11" x="113.2" y="6.56" width="2" height=".1" transform="translate(19.44 70.68) rotate(-37.38)"/>
              <rect class="cls-11" x="112.35" y="6.29" width="2.57" height=".1" transform="translate(19.37 70.12) rotate(-37.27)"/>
              <rect class="cls-11" x="112.08" y="5.89" width="2.57" height=".1" transform="translate(19.56 69.87) rotate(-37.27)"/>
            </g>
            <rect class="cls-11" x="115.53" y="7.8" width="3.59" height=".1" transform="translate(16.76 68.78) rotate(-35.03)"/>
            <rect class="cls-11" x="115.89" y="8.17" width="3.59" height=".1" transform="translate(16.61 69.05) rotate(-35.03)"/>
            <rect class="cls-11" x="116.25" y="8.52" width="3.59" height=".1" transform="translate(16.47 69.32) rotate(-35.03)"/>
            <polygon class="cls-11" points="117.52 9.7 117.47 9.62 120.41 7.56 120.46 7.64 117.52 9.7"/>
            <rect class="cls-11" x="117.53" y="9.07" width="3.59" height=".1" transform="translate(16.32 70.04) rotate(-34.97)"/>
            <rect class="cls-11" x="117.34" y="9.32" width=".1" height="2.19" transform="translate(14.78 68.37) rotate(-34.53)"/>
            <rect class="cls-11" x="117.71" y="9.05" width=".1" height="2.19" transform="translate(15 68.54) rotate(-34.53)"/>
            <rect class="cls-11" x="103.16" y="24.68" width="3.95" height=".1" transform="translate(3.48 61.23) rotate(-32.99)"/>
            <rect class="cls-11" x="106.28" y="24.27" width="1.68" height=".1" transform="translate(4.21 62.72) rotate(-33.26)"/>
            <rect class="cls-11" x="106.68" y="24.82" width="1.68" height=".1" transform="translate(3.97 63.03) rotate(-33.26)"/>
            <rect class="cls-11" x="102.79" y="24.44" width="3.95" height=".1" transform="translate(3.55 60.99) rotate(-32.99)"/>
            <rect class="cls-11" x="105.25" y="24.89" width=".1" height="2.64" transform="translate(3.87 64.77) rotate(-34.79)"/>
            <rect class="cls-11" x="105.94" y="24.5" width=".1" height="3.25" transform="translate(4.09 65.27) rotate(-34.86)"/>
            <rect class="cls-11" x="106.45" y="24.17" width=".1" height="3.25" transform="translate(4.37 65.5) rotate(-34.86)"/>
            <rect class="cls-11" x="106.88" y="23.93" width=".1" height="3.25" transform="translate(4.58 65.71) rotate(-34.86)"/>
            <rect class="cls-11" x="112.99" y="22.47" width=".1" height="6.06" transform="translate(70.37 133.24) rotate(-81.11)"/>
            <rect class="cls-11" x="112.93" y="23.02" width=".1" height="6.06" transform="translate(69.78 133.65) rotate(-81.11)"/>
            <rect class="cls-11" x="112.86" y="23.57" width=".1" height="6.06" transform="translate(69.17 134.05) rotate(-81.11)"/>
            <rect class="cls-11" x="112.75" y="24.11" width=".1" height="6.06" transform="translate(68.55 134.39) rotate(-81.11)"/>
            <rect class="cls-11" x="111.85" y="23.39" width=".1" height="2.32" transform="translate(9.69 76.3) rotate(-39.23)"/>
            <rect class="cls-11" x="112.58" y="23.52" width=".1" height="2.32" transform="translate(9.77 76.79) rotate(-39.22)"/>
            <rect class="cls-11" x="113.21" y="23.6" width=".1" height="2.32" transform="translate(9.86 77.2) rotate(-39.23)"/>
            <rect class="cls-11" x="112.92" y="23.87" width="2.27" height=".1" transform="translate(4.45 63.51) rotate(-31.71)"/>
            <rect class="cls-11" x="113.31" y="24.35" width="2.27" height=".1" transform="translate(4.26 63.79) rotate(-31.71)"/>
            <polygon class="cls-11" points="120.31 22.2 116.95 21.87 116.96 21.77 120.32 22.1 120.31 22.2"/>
            <rect class="cls-11" x="118.42" y="20.99" width=".1" height="3.38" transform="translate(84.29 138.36) rotate(-84.38)"/>
            <rect class="cls-11" x="118.33" y="21.64" width=".1" height="3.38" transform="translate(83.57 138.85) rotate(-84.38)"/>
            <rect class="cls-11" x="118.22" y="22.24" width=".1" height="3.38" transform="translate(82.87 139.29) rotate(-84.38)"/>
            <rect class="cls-11" x="119.84" y="12.71" width=".1" height="6.34" transform="translate(13.37 73.15) rotate(-35.81)"/>
            <rect class="cls-11" x="119.69" y="13.37" width=".1" height="6.34" transform="translate(12.95 73.19) rotate(-35.81)"/>
            <polygon class="cls-11" points="121.12 19.51 117.41 14.37 117.49 14.31 121.2 19.45 121.12 19.51"/>
            <rect class="cls-11" x="120.66" y="12.84" width=".1" height="3.73" transform="translate(89.49 132.23) rotate(-82.07)"/>
            <rect class="cls-11" x="121.12" y="13.43" width=".1" height="3.73" transform="translate(89.3 133.19) rotate(-82.07)"/>
            <rect class="cls-11" x="121.61" y="14.13" width=".1" height="3.73" transform="translate(89.03 134.29) rotate(-82.07)"/>
            <rect class="cls-11" x="122.11" y="14.85" width=".1" height="3.73" transform="translate(88.76 135.4) rotate(-82.07)"/>
            <polygon class="cls-11" points="118.05 17.69 117.99 17.61 119.17 16.8 119.22 16.88 118.05 17.69"/>
            <rect class="cls-11" x="118.59" y="16.3" width=".1" height="2.9" transform="translate(83.77 132.53) rotate(-81.61)"/>
            <polygon class="cls-11" points="120.53 18.71 117.13 18.17 117.14 18.07 120.54 18.61 120.53 18.71"/>
            <rect class="cls-11" x="119.06" y="17.14" width=".1" height="3.7" transform="translate(82.58 133.94) rotate(-81.43)"/>
            <rect class="cls-11" x="116.76" y="19.62" width="2.55" height=".1" transform="translate(8.15 67.04) rotate(-32.78)"/>
            <rect class="cls-11" x="116.11" y="20.12" width="3.99" height=".1" transform="translate(7.62 66.52) rotate(-32.45)"/>
            <rect class="cls-11" x="117.61" y="10.9" width="1.87" height=".1" transform="translate(16.26 71.86) rotate(-36.05)"/>
            <rect class="cls-11" x="117.64" y="11.43" width="1.87" height=".1" transform="translate(15.95 71.98) rotate(-36.05)"/>
            <rect class="cls-11" x="117.54" y="12.06" width="1.87" height=".1" transform="translate(15.56 72.04) rotate(-36.05)"/>
            <rect class="cls-11" x="117.41" y="12.79" width="1.87" height=".1" transform="translate(15.1 72.1) rotate(-36.05)"/>
            <rect class="cls-11" x="117.25" y="13.44" width="1.87" height=".1" transform="translate(14.72 72.17) rotate(-36.07)"/>
          </g>
        </g>
      </g>
    </g>
    <g>
      <g>
        <circle class="cls-2" cx="109.49" cy="15" r="9.11"/>
        <path class="cls-15" d="M109.49,24.16c-5.05,0-9.16-4.11-9.16-9.16s4.11-9.16,9.16-9.16,9.16,4.11,9.16,9.16-4.11,9.16-9.16,9.16Zm0-18.21c-4.99,0-9.05,4.06-9.05,9.05s4.06,9.05,9.05,9.05,9.05-4.06,9.05-9.05-4.06-9.05-9.05-9.05Z"/>
      </g>
      <circle class="cls-4" cx="109.49" cy="15" r="8.26"/>
      <g class="cls-8">
        <g>
          <rect class="cls-2" x="89.45" y="9.97" width="25.69" height=".1" transform="translate(47.49 96.97) rotate(-63.37)"/>
          <rect class="cls-2" x="89.92" y="10.27" width="25.69" height=".1" transform="translate(47.47 97.56) rotate(-63.37)"/>
          <rect class="cls-2" x="90.4" y="10.64" width="25.69" height=".1" transform="translate(47.41 98.19) rotate(-63.37)"/>
          <rect class="cls-2" x="90.87" y="10.95" width="25.69" height=".1" transform="translate(47.4 98.78) rotate(-63.37)"/>
          <rect class="cls-2" x="91.35" y="11.22" width="25.69" height=".1" transform="translate(47.41 99.36) rotate(-63.37)"/>
          <rect class="cls-2" x="91.82" y="11.53" width="25.69" height=".1" transform="translate(47.4 99.95) rotate(-63.37)"/>
          <rect class="cls-2" x="92.3" y="11.81" width="25.69" height=".1" transform="translate(47.41 100.53) rotate(-63.37)"/>
          <rect class="cls-2" x="92.77" y="12.17" width="25.69" height=".1" transform="translate(47.35 101.16) rotate(-63.37)"/>
          <rect class="cls-2" x="93.25" y="12.51" width="25.69" height=".1" transform="translate(47.31 101.77) rotate(-63.37)"/>
          <rect class="cls-2" x="93.72" y="12.73" width="25.69" height=".1" transform="translate(47.38 102.31) rotate(-63.37)"/>
          <rect class="cls-2" x="94.2" y="13.09" width="25.69" height=".1" transform="translate(47.31 102.94) rotate(-63.37)"/>
          <rect class="cls-2" x="94.67" y="13.37" width="25.69" height=".1" transform="translate(47.33 103.52) rotate(-63.37)"/>
          <rect class="cls-2" x="95.15" y="13.62" width="25.69" height=".1" transform="translate(47.37 104.08) rotate(-63.37)"/>
          <rect class="cls-2" x="95.63" y="13.89" width="25.69" height=".1" transform="translate(47.38 104.66) rotate(-63.37)"/>
          <rect class="cls-2" x="96.1" y="14.2" width="25.69" height=".1" transform="translate(47.37 105.25) rotate(-63.37)"/>
        </g>
      </g>
      <g>
        <g>
          <polygon class="cls-2" points="114.61 10.35 114.28 10.17 113.94 10.34 114.01 9.97 113.75 9.71 114.12 9.66 114.29 9.33 114.45 9.66 114.82 9.72 114.55 9.98 114.61 10.35"/>
          <polygon class="cls-2" points="115.21 11.55 115.62 11.65 115.93 11.36 115.96 11.78 116.33 12 115.94 12.16 115.85 12.57 115.58 12.25 115.16 12.29 115.38 11.93 115.21 11.55"/>
          <polygon class="cls-2" points="114.12 12.66 113.94 12.45 113.66 12.48 113.8 12.24 113.68 11.99 113.96 12.05 114.16 11.86 114.19 12.14 114.43 12.27 114.17 12.38 114.12 12.66"/>
          <polygon class="cls-2" points="113.12 11.44 112.79 11.26 112.45 11.43 112.52 11.06 112.26 10.79 112.63 10.75 112.8 10.41 112.96 10.75 113.33 10.81 113.06 11.07 113.12 11.44"/>
          <polygon class="cls-2" points="113.77 14.15 113.6 14.51 113.81 14.85 113.42 14.81 113.16 15.11 113.07 14.72 112.71 14.57 113.05 14.37 113.09 13.98 113.38 14.24 113.77 14.15"/>
        </g>
        <g>
          <g>
            <path class="cls-19" d="M106.89,14.6c.86-.19,1.77-.16,2.66-.06,1.34,.16,2.69,.49,3.82,1.25s1.99,1.98,2.05,3.33c.7-.65,.97-1.52,.83-2.46-.14-.94-.63-1.8-1.24-2.53-.94-1.12-2.19-1.97-3.58-2.44-1.06-.36-2.19-.49-3.3-.39l-1.24,3.3Z"/>
            <path class="cls-6" d="M115.37,19.23v-.11c-.07-1.25-.82-2.47-2.03-3.29-.96-.65-2.2-1.05-3.79-1.24-1.06-.13-1.9-.11-2.64,.06l-.09,.02,1.28-3.42h.03c1.12-.1,2.27,.03,3.32,.39,1.4,.47,2.65,1.32,3.6,2.45,.71,.84,1.13,1.7,1.25,2.56,.14,.99-.15,1.85-.85,2.5l-.08,.07Zm-7.1-4.82c.39,0,.82,.03,1.28,.08,1.61,.19,2.86,.6,3.84,1.26,1.2,.81,1.97,2.02,2.07,3.25,.61-.62,.87-1.42,.74-2.34-.12-.84-.53-1.68-1.23-2.5-.94-1.12-2.17-1.96-3.55-2.42-1.03-.35-2.15-.48-3.25-.39l-1.2,3.19c.4-.08,.83-.12,1.3-.12Z"/>
          </g>
          <g>
            <path class="cls-19" d="M112.28,22.13c0-.52-.11-1.03-.25-1.54-.09,.33-.53,.42-.87,.33-.33-.09-.64-.29-.98-.3-.49-.01-.89,.35-1.35,.52-.58,.21-1.28,.09-1.73-.33,.23,.55,.54,1.07,.91,1.53,.17,.22,.6,.3,.86,.19,.26-.1,.48-.29,.7-.46,.22-.17,.47-.33,.75-.36,.67-.08,1.33,.65,1.97,.42Z"/>
            <path class="cls-6" d="M108.6,22.63c-.24,0-.5-.09-.64-.26-.37-.47-.68-.99-.91-1.54l-.09-.21,.17,.16c.44,.4,1.11,.53,1.68,.32,.16-.06,.31-.14,.46-.22,.28-.15,.58-.31,.91-.3,.23,0,.44,.09,.64,.18,.12,.05,.24,.1,.35,.13,.21,.06,.45,.04,.61-.06,.1-.06,.16-.14,.19-.24l.05-.18,.05,.18c.13,.46,.26,1,.26,1.55v.04s-.03,.01-.03,.01c-.36,.13-.73-.03-1.09-.19-.29-.13-.6-.26-.89-.23-.27,.03-.52,.2-.72,.35-.04,.03-.07,.05-.11,.08-.19,.15-.38,.3-.61,.39-.08,.03-.18,.05-.28,.05Zm-1.38-1.65c.22,.47,.49,.92,.82,1.33,.17,.21,.58,.27,.8,.18,.21-.08,.4-.23,.58-.37,.04-.03,.07-.06,.11-.08,.22-.17,.48-.34,.77-.37,.33-.04,.64,.1,.95,.24,.34,.15,.66,.29,.98,.2,0-.47-.1-.94-.22-1.35-.04,.07-.1,.12-.18,.16-.18,.11-.45,.13-.69,.07-.13-.03-.25-.08-.37-.13-.2-.08-.4-.16-.6-.17-.3,0-.57,.14-.86,.29-.15,.08-.31,.17-.47,.23-.54,.2-1.16,.11-1.62-.21Z"/>
          </g>
          <g>
            <path class="cls-6" d="M108.99,21.08c-1.07-.08-2.1-.44-2.99-1.04l.06-.08c.87,.59,1.89,.94,2.94,1.02v.1Z"/>
            <path class="cls-6" d="M110.97,20.92l-.02-.1c1.74-.43,3.2-1.6,4-3.2l.09,.05c-.82,1.63-2.3,2.82-4.07,3.26Z"/>
            <path class="cls-6" d="M115.67,14.99h-.1c0-2.62-1.68-5.03-4.08-5.87l.03-.1c2.44,.85,4.15,3.31,4.15,5.97Z"/>
            <path class="cls-6" d="M113.73,19.79c-.13,0-.27-.01-.4-.03l.02-.1c.72,.12,1.5-.11,2.03-.62l.07,.07c-.45,.43-1.08,.68-1.71,.68Z"/>
          </g>
        </g>
        <g>
          <path class="cls-6" d="M106.9,19.04h-.4c-.07,0-.13-.03-.16-.08l-.4-.65s-.03-.04-.05-.06c-.02-.01-.05-.02-.09-.02h-.15v.81h-.44v-2.12h.67c.15,0,.28,.02,.38,.05,.11,.03,.19,.07,.26,.13s.12,.12,.15,.2c.03,.08,.05,.16,.05,.25,0,.07-.01,.14-.03,.2-.02,.06-.05,.12-.09,.17s-.08,.1-.14,.14-.12,.07-.19,.1c.03,.02,.05,.03,.08,.06,.02,.02,.05,.05,.07,.08l.49,.76Zm-1.03-1.12c.07,0,.13,0,.18-.03,.05-.02,.09-.04,.13-.07s.06-.07,.07-.11c.02-.04,.02-.09,.02-.14,0-.1-.03-.18-.1-.23-.07-.06-.17-.08-.31-.08h-.23v.67h.23Z"/>
          <path class="cls-6" d="M108.05,17.26v.55h.71v.33h-.71v.56h.91v.34h-1.35v-2.12h1.35v.34h-.91Z"/>
          <path class="cls-6" d="M111.65,19.04h-.34s-.07,0-.09-.03c-.02-.02-.04-.04-.05-.07l-.14-.41h-.85l-.14,.41s-.03,.05-.05,.07c-.02,.02-.06,.03-.09,.03h-.34l.83-2.12h.45l.83,2.12Zm-.74-.81l-.23-.65s-.03-.07-.04-.12-.03-.1-.04-.15c-.01,.05-.03,.11-.04,.15-.02,.05-.03,.09-.04,.12l-.23,.65h.63Z"/>
          <path class="cls-6" d="M113.6,18.68v.36h-1.26v-2.12h.44v1.77h.82Z"/>
        </g>
        <g>
          <path class="cls-6" d="M108.17,20.14c.07-.06,.13-.13,.18-.19,.13-.13,.19-.23,.19-.34,0-.11-.06-.17-.15-.17-.04,0-.08,0-.13,.03l.09-.05-.03,.12c-.02,.08-.05,.1-.09,.1-.03,0-.06-.02-.08-.05,0-.14,.14-.21,.29-.21,.18,0,.26,.1,.26,.23,0,.12-.08,.22-.29,.39-.04,.04-.1,.09-.16,.13l-.02-.03h.49v.13h-.57v-.1Z"/>
          <path class="cls-6" d="M109.44,19.82c0,.32-.14,.44-.29,.44s-.29-.12-.29-.44,.14-.44,.29-.44,.29,.12,.29,.44Zm-.29,.37c.07,0,.13-.08,.13-.37s-.06-.38-.13-.38-.13,.07-.13,.38,.06,.37,.13,.37Z"/>
          <path class="cls-6" d="M110.11,20.19v.05h-.51v-.05l.18-.04h.15l.17,.04Zm-.19-.8h.02s0,.2,0,.2v.38c0,.09,0,.18,0,.28h-.17c0-.09,0-.19,0-.28v-.46h-.15s0-.05,0-.05l.3-.07Z"/>
          <path class="cls-6" d="M110.48,19.77c.11,0,.18-.06,.18-.17,0-.1-.05-.15-.15-.15-.03,0-.06,0-.11,.02l.07-.04-.02,.1c-.01,.06-.04,.09-.09,.09-.03,0-.06-.01-.07-.05,.01-.13,.12-.19,.25-.19,.17,0,.27,.09,.27,.21,0,.1-.08,.19-.24,.22v-.02c.19,.02,.26,.1,.26,.22,0,.14-.12,.25-.31,.25-.16,0-.25-.07-.27-.2,.02-.04,.04-.05,.07-.05,.05,0,.07,.03,.09,.11l.02,.11-.06-.05s.07,.02,.1,.02c.12,0,.19-.06,.19-.18,0-.11-.06-.18-.19-.18h-.06v-.07h.05Z"/>
        </g>
        <g>
          <path class="cls-18" d="M107.47,16.7l.05-.6s-.48,.12-.65-.05c-.17-.17-.23-.43-.21-.67,.02-.24,.12-.47,.21-.69,.81-2,1.51-4.08,2.09-6.16-.15-.02-.2-.07-.36-.09-1.13,.5-2.28,.69-3.51,.68-.06,.13-.09,.39-.09,.39,0,0,.44-.12,.66-.1s.45,.13,.55,.33c.11,.23,.03,.5-.05,.74-.54,1.63-1.09,3.27-1.63,4.9-.08,.24-.17,.49-.35,.66-.3,.27-1.16,.21-1.16,.21v.5s4.45-.06,4.45-.06Z"/>
          <path class="cls-6" d="M102.98,16.81l-.02-.6h.06s.84,.06,1.12-.19c.18-.16,.27-.42,.34-.64l1.63-4.9c.08-.24,.15-.5,.05-.7-.1-.2-.33-.29-.51-.3-.21-.02-.64,.09-.64,.09l-.07,.02v-.07s.04-.27,.1-.4v-.03s.05,0,.05,0c1.33,0,2.44-.21,3.49-.68h.01s.01,0,.01,0c.08,0,.14,.03,.19,.05,.05,.02,.1,.03,.17,.04h.06s-.02,.06-.02,.06c-.58,2.11-1.29,4.18-2.09,6.17-.09,.22-.18,.44-.2,.67-.02,.25,.05,.48,.19,.62,.12,.12,.48,.07,.61,.03l.07-.02-.06,.72-4.53,.06Zm.09-.49v.39s4.35-.05,4.35-.05l.04-.49c-.15,.03-.48,.07-.63-.07-.17-.16-.25-.42-.22-.71,.02-.24,.12-.47,.21-.7,.8-1.97,1.5-4.02,2.07-6.11-.05-.01-.09-.03-.13-.04-.05-.02-.09-.03-.15-.04-1.05,.47-2.16,.68-3.48,.68h0c-.03,.08-.05,.19-.06,.27,.14-.03,.43-.09,.6-.08,.27,.02,.49,.16,.59,.36,.12,.24,.04,.52-.04,.78l-1.63,4.9c-.07,.22-.17,.5-.37,.68-.27,.24-.94,.23-1.14,.22Z"/>
        </g>
      </g>
    </g>
    <g class="cls-12">
      <g class="cls-17">
        <g>
          <rect class="cls-3" x="88.17" y="12.81" width="31.22" height="2.74" transform="translate(45.03 100.89) rotate(-63.66)"/>
          <rect class="cls-3" x="95.17" y="13.83" width="31.22" height="4.03" transform="translate(47.43 108.09) rotate(-63.66)"/>
          <rect class="cls-3" x="83.18" y="7.14" width="31.22" height="4.03" transform="translate(46.75 93.63) rotate(-63.66)"/>
          <rect class="cls-3" x="102.5" y="16.23" width="31.22" height="2.74" transform="translate(49.94 115.64) rotate(-63.66)"/>
        </g>
      </g>
    </g>
  </g>
</svg>